<svg xmlns="http://www.w3.org/2000/svg" xmlns:xlink="http://www.w3.org/1999/xlink" width="851" height="315" preserveAspectRatio="xMidYMid meet" version="1.0" viewBox="0 0 638.25 236.25" zoomAndPan="magnify"><defs><clipPath id="5574b5c8ec"><path d="M 318 10 L 357 10 L 357 134 L 318 134 Z M 318 10" clip-rule="nonzero"/></clipPath><clipPath id="2757140cfa"><path d="M 296.8125 29.070312 L 350.039062 10.863281 L 385.6875 115.070312 L 332.460938 133.277344 Z M 296.8125 29.070312" clip-rule="nonzero"/></clipPath><clipPath id="30a0e52e76"><path d="M 296.8125 29.070312 L 350.039062 10.863281 L 385.6875 115.070312 L 332.460938 133.277344 Z M 296.8125 29.070312" clip-rule="nonzero"/></clipPath><clipPath id="3fa0982726"><path d="M 318 18 L 339 18 L 339 134 L 318 134 Z M 318 18" clip-rule="nonzero"/></clipPath><clipPath id="47ff41b03e"><path d="M 296.8125 29.070312 L 350.039062 10.863281 L 385.6875 115.070312 L 332.460938 133.277344 Z M 296.8125 29.070312" clip-rule="nonzero"/></clipPath><clipPath id="c669a56fec"><path d="M 296.8125 29.070312 L 350.039062 10.863281 L 385.6875 115.070312 L 332.460938 133.277344 Z M 296.8125 29.070312" clip-rule="nonzero"/></clipPath><clipPath id="db8b5eb8d8"><rect width="591" height="181" x="0" y="0"/></clipPath></defs><g><g clip-path="url(#db8b5eb8d8)" transform="matrix(1, 0, 0, 1, 18, 25)"><g fill="#fff" fill-opacity="1"><g><g><path d="M 12.71875 -5.421875 L 12.71875 -85.984375 C 12.71875 -87.734375 13.335938 -89.109375 14.578125 -90.109375 C 15.703125 -90.847656 17.007812 -91.21875 18.5 -91.21875 L 38.703125 -91.21875 C 40.441406 -91.21875 41.5625 -90.625 42.0625 -89.4375 C 42.5625 -88.257812 43.1875 -86.988281 43.9375 -85.625 L 47.109375 -77.765625 C 48.972656 -79.878906 50.929688 -82.085938 52.984375 -84.390625 C 55.046875 -86.703125 57.382812 -88.664062 60 -90.28125 C 62.625 -91.90625 65.554688 -92.71875 68.796875 -92.71875 C 74.023438 -92.71875 78.351562 -91.875 81.78125 -90.1875 C 85.207031 -88.507812 88.914062 -86.300781 92.90625 -83.5625 C 96.144531 -81.445312 96.769531 -78.828125 94.78125 -75.703125 L 80.390625 -55.140625 C 78.890625 -53.023438 77.203125 -51.96875 75.328125 -51.96875 C 74.835938 -51.96875 74.34375 -52.03125 73.84375 -52.15625 C 73.34375 -52.28125 72.84375 -52.59375 72.34375 -53.09375 C 70.476562 -54.582031 68.828125 -55.796875 67.390625 -56.734375 C 65.953125 -57.671875 64.300781 -58.140625 62.4375 -58.140625 C 58.820312 -58.140625 56.109375 -56.796875 54.296875 -54.109375 C 52.492188 -51.429688 51.59375 -48.410156 51.59375 -45.046875 L 51.59375 -5.421875 C 51.59375 -1.804688 49.660156 0 45.796875 0 L 18.3125 0 C 14.582031 0 12.71875 -1.804688 12.71875 -5.421875 Z M 12.71875 -5.421875" transform="translate(0.348544, 143.971249)"/></g></g></g><g fill="#fff" fill-opacity="1"><g><g><path d="M 12.53125 -4.109375 L 12.53125 -87.296875 C 12.53125 -88.421875 12.898438 -89.382812 13.640625 -90.1875 C 14.390625 -91 15.390625 -91.40625 16.640625 -91.40625 L 48.609375 -91.40625 C 49.597656 -91.40625 50.625 -91.03125 51.6875 -90.28125 C 52.75 -89.539062 53.28125 -88.546875 53.28125 -87.296875 L 53.28125 -4.109375 C 53.28125 -1.367188 51.722656 0 48.609375 0 L 16.640625 0 C 13.898438 0 12.53125 -1.367188 12.53125 -4.109375 Z M 46.734375 -113.65625 L 55.328125 -133.28125 C 55.703125 -133.90625 55.921875 -134.5 55.984375 -135.0625 C 56.046875 -135.625 56.078125 -136.15625 56.078125 -136.65625 C 56.078125 -138.019531 55.269531 -138.703125 53.65625 -138.703125 L 33.28125 -138.703125 C 32.03125 -138.703125 31.0625 -138.390625 30.375 -137.765625 C 29.6875 -137.148438 28.972656 -136.15625 28.234375 -134.78125 L 20 -115.71875 C 19.75 -115.09375 19.5 -114.46875 19.25 -113.84375 C 19 -113.21875 18.875 -112.59375 18.875 -111.96875 C 18.875 -110.476562 19.9375 -109.734375 22.0625 -109.734375 L 41.875 -109.734375 C 44.113281 -109.734375 45.734375 -111.039062 46.734375 -113.65625 Z M 46.734375 -113.65625" transform="translate(79.794178, 143.971249)"/></g></g></g><g fill="#fff" fill-opacity="1"><g><g><path d="M 51.40625 -91.21875 L 58.890625 -91.21875 C 60.503906 -91.21875 61.84375 -90.78125 62.90625 -89.90625 C 63.96875 -89.039062 64.5 -87.734375 64.5 -85.984375 L 64.5 -67.109375 C 64.5 -65.984375 64 -64.765625 63 -63.453125 C 62 -62.148438 60.628906 -61.5 58.890625 -61.5 L 51.40625 -61.5 L 51.40625 -4.109375 C 51.40625 -2.992188 51.0625 -2.03125 50.375 -1.21875 C 49.6875 -0.40625 48.660156 0 47.296875 0 L 17.015625 0 C 16.140625 0 15.171875 -0.375 14.109375 -1.125 C 13.054688 -1.875 12.53125 -2.867188 12.53125 -4.109375 L 12.53125 -61.5 L 9.34375 -61.5 C 5.726562 -61.5 3.921875 -63.367188 3.921875 -67.109375 L 3.921875 -85.984375 C 3.921875 -89.472656 5.726562 -91.21875 9.34375 -91.21875 L 12.53125 -91.21875 L 12.53125 -97.390625 C 12.53125 -104.367188 14.242188 -111.003906 17.671875 -117.296875 C 21.097656 -123.597656 25.738281 -128.925781 31.59375 -133.28125 C 35.957031 -135.90625 40.628906 -137.804688 45.609375 -138.984375 C 50.597656 -140.171875 55.644531 -140.765625 60.75 -140.765625 C 62.5 -140.765625 64.023438 -140.390625 65.328125 -139.640625 C 66.640625 -138.890625 67.296875 -137.519531 67.296875 -135.53125 L 67.296875 -110.109375 C 67.296875 -107.859375 66.175781 -106.734375 63.9375 -106.734375 C 59.695312 -106.734375 56.609375 -105.890625 54.671875 -104.203125 C 52.742188 -102.523438 51.65625 -100.128906 51.40625 -97.015625 Z M 51.40625 -91.21875" transform="translate(136.060244, 143.971249)"/></g></g></g><g fill="#fff" fill-opacity="1"><g><g><path d="M 68.421875 -44.859375 C 68.421875 -48.347656 67.421875 -51.273438 65.421875 -53.640625 C 63.429688 -56.015625 60.753906 -57.203125 57.390625 -57.203125 C 54.023438 -57.203125 51.3125 -56.015625 49.25 -53.640625 C 47.195312 -51.273438 46.171875 -48.347656 46.171875 -44.859375 C 46.171875 -41.367188 47.195312 -38.472656 49.25 -36.171875 C 51.3125 -33.867188 54.023438 -32.71875 57.390625 -32.71875 C 60.753906 -32.71875 63.429688 -33.867188 65.421875 -36.171875 C 67.421875 -38.472656 68.421875 -41.367188 68.421875 -44.859375 Z M 5.796875 -45.421875 L 5.796875 -46.171875 C 5.796875 -54.773438 7.726562 -62.628906 11.59375 -69.734375 C 15.457031 -76.835938 20.660156 -82.535156 27.203125 -86.828125 C 33.742188 -91.128906 41.066406 -93.28125 49.171875 -93.28125 C 54.148438 -93.28125 58.132812 -92.625 61.125 -91.3125 C 64.113281 -90.007812 66.539062 -88.515625 68.40625 -86.828125 C 70.28125 -85.148438 71.84375 -83.625 73.09375 -82.25 C 74.21875 -85.863281 75.148438 -88.351562 75.890625 -89.71875 C 76.640625 -91.09375 78.015625 -91.78125 80.015625 -91.78125 L 100.390625 -91.78125 C 101.753906 -91.78125 103.03125 -91.34375 104.21875 -90.46875 C 105.40625 -89.601562 106 -88.296875 106 -86.546875 L 106 -5.046875 C 106 -3.304688 105.40625 -2 104.21875 -1.125 C 103.03125 -0.25 101.753906 0.1875 100.390625 0.1875 L 80.015625 0.1875 C 78.015625 0.1875 76.640625 -0.492188 75.890625 -1.859375 C 75.148438 -3.234375 74.21875 -5.726562 73.09375 -9.34375 C 71.84375 -8.101562 70.28125 -6.609375 68.40625 -4.859375 C 66.539062 -3.117188 64.113281 -1.59375 61.125 -0.28125 C 58.132812 1.03125 54.148438 1.6875 49.171875 1.6875 C 41.066406 1.6875 33.742188 -0.460938 27.203125 -4.765625 C 20.660156 -9.066406 15.457031 -14.800781 11.59375 -21.96875 C 7.726562 -29.132812 5.796875 -36.953125 5.796875 -45.421875 Z M 5.796875 -45.421875" transform="translate(190.270012, 143.971249)"/></g></g></g><g fill="#fff" fill-opacity="1"><g><g><path d="M 18.3125 -91.21875 L 18.3125 -117.578125 C 18.3125 -118.703125 18.65625 -119.726562 19.34375 -120.65625 C 20.03125 -121.59375 21.0625 -122.1875 22.4375 -122.4375 L 52.34375 -127.671875 C 53.46875 -127.671875 54.492188 -127.421875 55.421875 -126.921875 C 56.359375 -126.429688 56.828125 -125.5 56.828125 -124.125 L 56.828125 -91.21875 L 65.046875 -91.21875 C 66.671875 -91.21875 68.007812 -90.78125 69.0625 -89.90625 C 70.125 -89.039062 70.65625 -87.734375 70.65625 -85.984375 L 70.65625 -67.109375 C 70.65625 -65.984375 70.15625 -64.765625 69.15625 -63.453125 C 68.164062 -62.148438 66.796875 -61.5 65.046875 -61.5 L 56.828125 -61.5 L 56.828125 -4.109375 C 56.828125 -1.367188 55.332031 0 52.34375 0 L 22.4375 0 C 19.6875 0 18.3125 -1.367188 18.3125 -4.109375 L 18.3125 -61.5 L 13.640625 -61.5 C 10.023438 -61.5 8.21875 -63.367188 8.21875 -67.109375 L 8.21875 -85.984375 C 8.21875 -89.472656 10.023438 -91.21875 13.640625 -91.21875 Z M 18.3125 -91.21875" transform="translate(290.652091, 143.971249)"/></g></g></g><g fill="#fff" fill-opacity="1"><g><g><path d="M 70.109375 -30.46875 L 70.28125 -30.46875 C 70.53125 -30.71875 70.84375 -30.84375 71.21875 -30.84375 C 71.59375 -30.84375 71.84375 -30.84375 71.96875 -30.84375 C 72.71875 -30.84375 73.46875 -30.34375 74.21875 -29.34375 L 85.25 -13.265625 L 85.25 -13.453125 C 85.988281 -12.710938 86.359375 -11.90625 86.359375 -11.03125 C 86.359375 -9.90625 86.015625 -8.96875 85.328125 -8.21875 C 84.648438 -7.476562 83.875 -6.859375 83 -6.359375 C 79.132812 -3.617188 74.832031 -1.59375 70.09375 -0.28125 C 65.363281 1.03125 60.441406 1.6875 55.328125 1.6875 C 46.734375 1.6875 38.882812 -0.398438 31.78125 -4.578125 C 24.675781 -8.753906 19.003906 -14.425781 14.765625 -21.59375 C 10.523438 -28.757812 8.40625 -36.765625 8.40625 -45.609375 C 8.40625 -53.960938 10.398438 -61.722656 14.390625 -68.890625 C 18.378906 -76.054688 23.800781 -81.816406 30.65625 -86.171875 C 37.507812 -90.535156 45.300781 -92.71875 54.03125 -92.71875 C 62 -92.71875 69.253906 -90.878906 75.796875 -87.203125 C 82.347656 -83.523438 87.707031 -78.570312 91.875 -72.34375 C 96.050781 -66.113281 98.578125 -59.007812 99.453125 -51.03125 C 99.328125 -46.050781 98.203125 -42.0625 96.078125 -39.0625 C 93.960938 -36.070312 89.914062 -34.578125 83.9375 -34.578125 L 42.8125 -34.578125 C 44.300781 -32.210938 46.382812 -30.28125 49.0625 -28.78125 C 51.75 -27.289062 54.210938 -26.546875 56.453125 -26.546875 C 59.191406 -26.546875 61.867188 -26.976562 64.484375 -27.84375 C 67.109375 -28.71875 68.984375 -29.59375 70.109375 -30.46875 Z M 55.703125 -64.125 C 52.585938 -64.125 49.96875 -63.375 47.84375 -61.875 C 45.726562 -60.382812 44.175781 -58.578125 43.1875 -56.453125 L 68.234375 -56.453125 C 67.234375 -58.078125 65.765625 -59.757812 63.828125 -61.5 C 61.898438 -63.25 59.191406 -64.125 55.703125 -64.125 Z M 55.703125 -64.125" transform="translate(350.096002, 143.971249)"/></g></g></g><g fill="#fff" fill-opacity="1"><g><g><path d="M 11.40625 -4.109375 L 11.40625 -134.40625 C 11.40625 -135.53125 11.773438 -136.492188 12.515625 -137.296875 C 13.265625 -138.109375 14.265625 -138.515625 15.515625 -138.515625 L 47.484375 -138.515625 C 48.484375 -138.515625 49.507812 -138.140625 50.5625 -137.390625 C 51.625 -136.648438 52.15625 -135.65625 52.15625 -134.40625 L 52.15625 -4.109375 C 52.15625 -1.367188 50.597656 0 47.484375 0 L 15.515625 0 C 12.773438 0 11.40625 -1.367188 11.40625 -4.109375 Z M 11.40625 -4.109375" transform="translate(437.766701, 143.971249)"/></g></g></g><g fill="#fff" fill-opacity="1"><g><g><path d="M 68.421875 -44.859375 C 68.421875 -48.347656 67.421875 -51.273438 65.421875 -53.640625 C 63.429688 -56.015625 60.753906 -57.203125 57.390625 -57.203125 C 54.023438 -57.203125 51.3125 -56.015625 49.25 -53.640625 C 47.195312 -51.273438 46.171875 -48.347656 46.171875 -44.859375 C 46.171875 -41.367188 47.195312 -38.472656 49.25 -36.171875 C 51.3125 -33.867188 54.023438 -32.71875 57.390625 -32.71875 C 60.753906 -32.71875 63.429688 -33.867188 65.421875 -36.171875 C 67.421875 -38.472656 68.421875 -41.367188 68.421875 -44.859375 Z M 5.796875 -45.421875 L 5.796875 -46.171875 C 5.796875 -54.773438 7.726562 -62.628906 11.59375 -69.734375 C 15.457031 -76.835938 20.660156 -82.535156 27.203125 -86.828125 C 33.742188 -91.128906 41.066406 -93.28125 49.171875 -93.28125 C 54.148438 -93.28125 58.132812 -92.625 61.125 -91.3125 C 64.113281 -90.007812 66.539062 -88.515625 68.40625 -86.828125 C 70.28125 -85.148438 71.84375 -83.625 73.09375 -82.25 C 74.21875 -85.863281 75.148438 -88.351562 75.890625 -89.71875 C 76.640625 -91.09375 78.015625 -91.78125 80.015625 -91.78125 L 100.390625 -91.78125 C 101.753906 -91.78125 103.03125 -91.34375 104.21875 -90.46875 C 105.40625 -89.601562 106 -88.296875 106 -86.546875 L 106 -5.046875 C 106 -3.304688 105.40625 -2 104.21875 -1.125 C 103.03125 -0.25 101.753906 0.1875 100.390625 0.1875 L 80.015625 0.1875 C 78.015625 0.1875 76.640625 -0.492188 75.890625 -1.859375 C 75.148438 -3.234375 74.21875 -5.726562 73.09375 -9.34375 C 71.84375 -8.101562 70.28125 -6.609375 68.40625 -4.859375 C 66.539062 -3.117188 64.113281 -1.59375 61.125 -0.28125 C 58.132812 1.03125 54.148438 1.6875 49.171875 1.6875 C 41.066406 1.6875 33.742188 -0.460938 27.203125 -4.765625 C 20.660156 -9.066406 15.457031 -14.800781 11.59375 -21.96875 C 7.726562 -29.132812 5.796875 -36.953125 5.796875 -45.421875 Z M 5.796875 -45.421875" transform="translate(481.695241, 143.971249)"/></g></g></g><g clip-path="url(#5574b5c8ec)"><g clip-path="url(#2757140cfa)"><g clip-path="url(#30a0e52e76)"><path fill="#000" fill-opacity="1" fill-rule="nonzero" d="M 323.078125 20.085938 L 349.789062 10.949219 L 340.882812 54.085938 L 356.539062 48.730469 L 332.433594 133.140625 L 335.527344 73.007812 L 318.777344 79.679688 Z M 323.078125 20.085938"/></g></g></g><g clip-path="url(#3fa0982726)"><g clip-path="url(#47ff41b03e)"><g clip-path="url(#c669a56fec)"><path fill="#7fda55" fill-opacity="1" fill-rule="nonzero" d="M 323.078125 20.085938 L 327.683594 18.507812 L 318.777344 79.679688 Z M 332.433594 133.140625 L 338.75 71.90625 L 335.527344 73.007812 Z M 332.433594 133.140625"/></g></g></g></g></g></svg>